<svg xmlns="http://www.w3.org/2000/svg" viewBox="0 0 400 50">
    <defs>
        <style>.cls-1{fill:#fff;}</style> <!-- Changed color to black for better visibility -->
    </defs>
    <g id="Layer_2" data-name="Layer 2">
        <g id="Layer_1-2" data-name="Layer 1">
            <g id="Layer_2-2" data-name="Layer 2">
                <g id="Layer_1-2-2" data-name="Layer 1-2">
                    <path class="cls-1"
                        d="M49.88,31.45A25.42,25.42,0,1,1,18.49.06,22.23,22.23,0,1,0,49.88,31.45Z" />
                    <path class="cls-1"
                        d="M22.08,11l8.32-1.2a.91.91,0,0,0,.78-.56c1.14-2.28,2.3-4.54,3.47-6.81l.3-.56.28.51c1.18,2.26,2.38,4.54,3.55,6.81a1,1,0,0,0,.88.61l7.91,1.11L48,11l-.39.4c-1.87,1.73-3.71,3.57-5.53,5.37a1.08,1.08,0,0,0-.36,1.16c.47,2.59.9,5.19,1.34,7.8a4.34,4.34,0,0,1,0,.51L42.55,26c-2.36-1.23-4.75-2.43-7.1-3.68a1,1,0,0,0-1,0c-2.3,1.23-4.6,2.43-6.89,3.65l-.6.3c.1-.63.19-1.17.29-1.7.37-2.28.74-4.54,1.15-6.8a.86.86,0,0,0-.3-.87c-1.91-1.82-3.8-3.68-5.72-5.52a1.29,1.29,0,0,0-.42-.26Z" />
                </g>
            </g>
            <text class="cls-1" x="80" y="35" font-size="35" font-family="Arial, sans-serif">My Muslim Soul</text>
        </g>
    </g>
</svg>
